<?xml version="1.0" standalone="no"?>
<!DOCTYPE svg PUBLIC "-//W3C//DTD SVG 1.1//EN" "http://www.w3.org/Graphics/SVG/1.1/DTD/svg11.dtd" >
<svg xmlns="http://www.w3.org/2000/svg" xmlns:xlink="http://www.w3.org/1999/xlink" version="1.1">
<metadata>
Created by FontForge 20170924 at Mon Jan 21 22:02:54 2019
 By www-data
Snow Deer (c) Dmletter. 2018. All Rights Reserved
</metadata>
<defs>
<font id="SnowDeer" horiz-adv-x="442" >
  <font-face 
    font-family="Snow Deer"
    font-weight="400"
    font-stretch="normal"
    units-per-em="1000"
    panose-1="2 0 5 0 0 0 0 0 0 0"
    ascent="800"
    descent="-200"
    x-height="808"
    cap-height="1418"
    bbox="-302 -132 711 1556"
    underline-thickness="50"
    underline-position="-150"
    unicode-range="U+001D-00A1"
  />
<missing-glyph horiz-adv-x="500" 
 />
    <glyph glyph-name=".notdef" horiz-adv-x="500" 
 />
    <glyph glyph-name=".null" horiz-adv-x="0" 
 />
    <glyph glyph-name=".null" horiz-adv-x="0" 
 />
    <glyph glyph-name="nonmarkingreturn" horiz-adv-x="508" 
 />
    <glyph glyph-name="space" unicode=" " horiz-adv-x="400" 
 />
    <glyph glyph-name="space" unicode="&#xa0;" horiz-adv-x="400" 
 />
    <glyph glyph-name="exclam" unicode="!" horiz-adv-x="107" 
d="M51 142q-31 11 -31 39q3 127 3 659q0 34 31 41q31 -7 31 -43q0 -144 2 -368q0 -310 -10 -310q-15 -18 -26 -18zM49 -42q-29 8 -29 42v39q0 34 31 42q31 -9 31 -42v-39q0 -37 -33 -42zM45 13v11q-4 0 -7 -7zM57 13q6 3 6 9l-6 2v-11z" />
    <glyph glyph-name="quotedbl" unicode="&#x22;" horiz-adv-x="166" 
d="M114 819q-30 7 -30 30h-1q0 -21 -32 -30q-31 6 -31 38v36q6 36 30 36h3q28 -7 28 -29h3q0 20 26 29h6q23 0 30 -33v-41q0 -29 -32 -36z" />
    <glyph glyph-name="numbersign" unicode="#" horiz-adv-x="441" 
d="M135 3q-34 7 -34 37h-2l3 221q-73 4 -73 19q-7 0 -9 31v4q6 40 32 40l50 -5v131q-71 0 -71 37q-2 3 -2 13q5 43 34 43q10 -2 34 -2l4 -2l1 4v269q0 28 36 38q31 0 36 -50v-263q46 -2 108 -2q-2 78 -2 269q0 54 40 54q32 -11 32 -41q0 -157 2 -284h29q38 0 38 -46
q0 -43 -45 -43q-13 0 -22 2v-131h11q47 0 47 -47q-6 -42 -34 -42h-22q-4 0 -4 -4l-1 -205q-12 -37 -36 -37q-36 10 -36 37q1 95 1 209q-88 0 -106 2l-3 -221q-11 -35 -36 -35zM279 346q3 0 3 4v123q0 4 -3 4h-105v-129z" />
    <glyph glyph-name="dollar" unicode="$" horiz-adv-x="466" 
d="M235 8h-9q-8 0 -29 18q-54 9 -130 68q-27 21 -27 42v11q0 34 58 44q35 0 83 -46l14 -11h2q0 2 -2 2q2 21 2 284l2 4q-94 79 -134 120q-45 56 -45 119q0 106 119 174q25 12 62 20q9 29 34 29q26 0 37 -35q41 0 112 -76q34 -57 34 -72v-10q-12 -44 -53 -44h-9q-47 0 -64 52
q-16 23 -16 26h-4l2 -221q172 -142 172 -261q0 -110 -121 -201q-28 -14 -68 -24q-7 -12 -22 -12zM197 574v175h-2q-51 -35 -51 -86q0 -50 53 -89zM274 145q51 45 51 92q0 46 -51 108v-2q-2 -132 -2 -198h2z" />
    <glyph glyph-name="percent" unicode="%" horiz-adv-x="480" 
d="M66 763h-7q-39 7 -39 40v38q0 31 39 37h4q40 -8 40 -35v-42q-7 -38 -37 -38zM78 24q-27 0 -33 33q12 40 321 807q13 10 28 10q31 -4 31 -27v-8q0 -16 -320 -803q-12 -12 -27 -12zM53 816v10q-5 0 -8 -6l6 -4h2zM72 816q3 0 6 6l-6 4v-10zM419 -1q-42 9 -42 39v40
q0 31 40 38h4q34 0 39 -44v-34q0 -30 -41 -39zM410 53v11q-8 -4 -8 -9zM429 53q3 0 6 6l-8 5v-11h2z" />
    <glyph glyph-name="ampersand" unicode="&#x26;" horiz-adv-x="384" 
d="M335 -56h-4q-27 0 -27 60l-4 221q-52 -40 -114 -40q-99 0 -151 103q-11 26 -15 70q0 102 106 179q2 0 2 2q-29 29 -29 65q0 76 92 124l18 2q11 0 28 -4l3 107l-1 18q0 25 32 30q28 0 28 -50q-6 -133 -6 -155q4 -18 4 -32q-5 -32 -26 -32h-5q-26 0 -31 42q-10 12 -27 12
q-51 -28 -51 -62q0 -15 27 -30q18 0 33 -31v-10q0 -25 -53 -44q-85 -60 -85 -131q0 -76 80 -106q23 -4 32 -4q76 0 108 78q3 15 3 50l-3 37q0 21 27 26h5q26 0 31 -63l-3 -120q3 -268 5 -282q0 -24 -29 -30z" />
    <glyph glyph-name="quotesingle" unicode="'" horiz-adv-x="117" 
d="M60 830h-3q-37 8 -37 37v39q0 30 39 36q38 -7 38 -38v-39q0 -28 -37 -35z" />
    <glyph glyph-name="parenleft" unicode="(" horiz-adv-x="194" 
d="M151 -29h-7q-98 0 -123 382q-1 55 -1 116q0 322 84 401q21 11 38 11q24 -6 24 -25q0 -38 -32 -38q-30 -35 -41 -102q-20 -109 -20 -234v-48q0 -246 56 -384q9 -19 28 -19q17 -13 17 -33q-7 -27 -23 -27z" />
    <glyph glyph-name="parenright" unicode=")" horiz-adv-x="198" 
d="M52 -36h-8q-18 0 -24 32q0 26 36 34q27 36 44 133q24 136 24 277q0 33 1 36q-1 4 -1 34q0 233 -55 332q-9 9 -30 16q-10 13 -10 22v8q0 23 27 28q80 0 108 -213q14 -86 14 -195v-62q0 -273 -63 -428q-28 -54 -63 -54z" />
    <glyph glyph-name="asterisk" unicode="*" horiz-adv-x="194" 
d="M70 818q-21 0 -27 28q0 10 13 28q-29 9 -29 23l-7 11q6 28 29 28q4 0 23 -7v18q0 24 28 30q28 -7 28 -27v-19l20 3q21 0 26 -28q-5 -30 -30 -30q13 -16 13 -23v-7q0 -22 -27 -27q-16 0 -30 20q-11 -21 -30 -21z" />
    <glyph glyph-name="plus" unicode="+" horiz-adv-x="457" 
d="M221 260q-36 0 -41 41q-1 111 -3 111q-142 5 -142 15q-15 12 -15 31q5 41 36 41q68 -6 119 -6q0 156 9 156q13 15 31 15q44 0 44 -34l-2 -96l2 -43q164 0 164 -9q14 -14 14 -28v-7q-6 -37 -37 -37q-59 2 -139 2l2 -121q-9 -31 -42 -31z" />
    <glyph glyph-name="comma" unicode="," horiz-adv-x="140" 
d="M66 -47h-9q-29 0 -37 39q0 23 44 63q8 4 21 4q35 -10 35 -35v-6q0 -24 -44 -63z" />
    <glyph glyph-name="hyphen" unicode="-" horiz-adv-x="427" 
d="M368 360q-335 0 -335 16q-13 13 -13 32q7 36 30 36q129 -7 318 -7q34 0 39 -36q0 -41 -39 -41z" />
    <glyph glyph-name="hyphen" unicode="&#xad;" horiz-adv-x="427" 
d="M368 360q-335 0 -335 16q-13 13 -13 32q7 36 30 36q129 -7 318 -7q34 0 39 -36q0 -41 -39 -41z" />
    <glyph glyph-name="period" unicode="." horiz-adv-x="122" 
d="M64 -75h-6q-38 6 -38 38v40q0 29 40 37q42 -7 42 -39v-38q-6 -38 -38 -38z" />
    <glyph glyph-name="slash" unicode="/" horiz-adv-x="445" 
d="M58 -31h-2q-36 6 -36 31v9q12 36 341 852q12 13 33 13q26 0 31 -37q-334 -844 -345 -860q-15 -8 -22 -8z" />
    <glyph glyph-name="zero" unicode="0" horiz-adv-x="472" 
d="M228 1h-19q-82 0 -140 108q-49 107 -49 269q0 255 101 429q55 86 154 86q120 0 163 -224q14 -77 14 -166q0 -272 -108 -436q-59 -66 -116 -66zM221 64q85 0 138 199q28 112 28 220v44q0 169 -61 271q-26 30 -47 30q-65 0 -88 -35q-52 -67 -71 -152q-35 -124 -35 -242v-40
q5 -222 92 -285q24 -10 44 -10z" />
    <glyph glyph-name="one" unicode="1" horiz-adv-x="228" 
d="M170 1q-21 0 -32 26q0 144 5 689q-67 -62 -90 -62q-28 0 -33 35q0 19 42 41q83 59 83 150l3 1l43 -1l16 1l1 -3l-7 -851q-10 -26 -31 -26z" />
    <glyph glyph-name="two" unicode="2" horiz-adv-x="554" 
d="M275 -4h-222q-6 0 -10 52q-2 0 -2 10q133 44 255 153q173 171 173 395v21q0 151 -104 187q-28 11 -66 11q-102 0 -244 -63h-4q-31 5 -31 30v7q0 25 94 54q94 34 172 34q5 0 8 2q3 -2 14 -2q146 0 205 -139q21 -60 21 -131q0 -312 -267 -512q-63 -43 -70 -43v-2h87
q33 -4 33 -31q0 -33 -42 -33z" />
    <glyph glyph-name="three" unicode="3" horiz-adv-x="568" 
d="M241 -6q-141 0 -221 157v12q0 20 31 28q23 0 49 -54q63 -80 139 -80q112 0 202 128q45 76 45 152q0 164 -134 234q-18 11 -59 21l-2 4l-2 57q68 16 101 54q19 28 19 50v7q0 42 -43 52l-14 2q-49 0 -125 -56q-6 -3 -14 -3q-31 5 -31 31q0 37 123 85q28 6 50 6
q86 0 115 -91q4 -20 4 -29q0 -81 -86 -136q160 -92 160 -292q0 -158 -144 -281q-84 -58 -163 -58z" />
    <glyph glyph-name="four" unicode="4" horiz-adv-x="505" 
d="M433 1q-32 5 -32 28l13 560q1 0 1 2h-3q-54 -64 -131 -64h-21q-144 0 -213 183q-27 86 -27 152q0 27 32 31q33 0 33 -57q14 -103 44 -157q51 -90 143 -90q107 0 140 151q9 50 9 105l3 1h56q3 0 5 -8q-3 -65 -21 -813q-10 -24 -31 -24z" />
    <glyph glyph-name="five" unicode="5" horiz-adv-x="572" 
d="M254 1q-129 0 -204 109q-30 53 -30 100q0 24 33 30q29 0 33 -45q0 -56 73 -106q45 -24 90 -24q10 0 10 -2l9 2q107 0 178 109q44 77 44 187q0 195 -170 195q-53 0 -140 -26q-33 20 -42 30v244q0 73 10 73q12 8 23 8h159q28 0 31 -32q0 -24 -29 -30h-130q0 -115 -2 -222
q61 18 123 18q167 0 215 -154q14 -43 14 -111q0 -243 -187 -333q-52 -20 -111 -20z" />
    <glyph glyph-name="six" unicode="6" horiz-adv-x="563" 
d="M243 4q-156 0 -207 118q-16 48 -16 93v14q0 173 161 463q50 88 111 161q35 40 67 40q33 -6 33 -31v-4q0 -27 -35 -31q-57 -58 -98 -128q-62 -103 -85 -160h2q87 17 146 17q160 0 197 -113q24 -75 24 -143q0 -130 -80 -216q-80 -80 -220 -80zM257 68q150 0 205 129
q17 47 17 100q0 98 -37 158q-36 37 -111 37h-18q-74 0 -172 -28q-58 -146 -58 -242q0 -115 84 -143q28 -11 59 -11h31z" />
    <glyph glyph-name="seven" unicode="7" horiz-adv-x="602" 
d="M235 8q-33 0 -33 37q0 474 269 777h-418q-33 5 -33 32q5 31 26 31h503q33 -6 33 -31q0 -20 -40 -49q-112 -121 -144 -196q-35 -57 -71 -156q-61 -186 -61 -367v-45q-5 -33 -31 -33z" />
    <glyph glyph-name="eight" unicode="8" horiz-adv-x="460" 
d="M221 -6h-28q-100 0 -153 129q-20 58 -20 122q0 127 46 227q39 58 75 80l2 4q-70 55 -70 149q0 109 117 174q30 10 54 10q73 0 125 -97q15 -39 15 -76q0 -93 -71 -157q75 -48 115 -184q12 -53 12 -103q0 -196 -142 -262q-41 -16 -77 -16zM225 592q56 0 86 71q9 23 9 47v14
q0 64 -66 101l-14 2q-41 0 -87 -63q-17 -33 -17 -61q0 -65 52 -102q15 -6 28 -9l3 2q6 0 6 -2zM212 57q154 0 166 214q0 138 -87 226q-29 25 -65 33q-86 -39 -116 -115q-28 -90 -28 -165q5 -157 96 -191q17 -2 34 -2z" />
    <glyph glyph-name="nine" unicode="9" horiz-adv-x="590" 
d="M261 -18q-138 0 -239 153q-2 3 -2 17q0 21 31 26q22 0 43 -39q81 -93 155 -93h18q98 0 174 117q67 136 67 375q0 23 -5 138q-50 -59 -116 -59q-83 0 -115 79q-7 16 -7 41q0 93 86 139q34 17 72 17h18q43 0 93 -17q15 0 20 -85q16 -121 16 -256q0 -413 -186 -519
q-64 -34 -123 -34zM387 679q68 0 95 104q3 29 3 41q-25 7 -53 7q-83 0 -103 -76l-2 -17q0 -51 60 -59z" />
    <glyph glyph-name="colon" unicode=":" horiz-adv-x="118" 
d="M54 490q-34 7 -34 32v37q0 22 32 29h3q34 -5 34 -34v-32q0 -26 -35 -32zM64 264q-33 0 -37 39v21q2 38 35 38q36 0 36 -40v-19q-4 -39 -34 -39z" />
    <glyph glyph-name="semicolon" unicode=";" horiz-adv-x="124" 
d="M71 517h-6q-29 0 -33 36v24q5 31 31 31h3q32 0 32 -41v-12q0 -29 -27 -38zM54 288q-29 0 -34 34q0 19 39 53l15 2q22 0 30 -31q0 -23 -36 -55q-10 -3 -14 -3z" />
    <glyph glyph-name="semicolon" unicode="&#x37e;" horiz-adv-x="124" 
d="M71 517h-6q-29 0 -33 36v24q5 31 31 31h3q32 0 32 -41v-12q0 -29 -27 -38zM54 288q-29 0 -34 34q0 19 39 53l15 2q22 0 30 -31q0 -23 -36 -55q-10 -3 -14 -3z" />
    <glyph glyph-name="less" unicode="&#x3c;" horiz-adv-x="420" 
d="M365 281q-17 0 -272 101q-65 28 -65 38q-8 14 -8 27q0 29 50 40q3 0 281 115l7 2q32 0 38 -45q0 -28 -73 -51q-80 -37 -160 -68v-2q214 -80 228 -89q9 -14 9 -24q-5 -44 -35 -44z" />
    <glyph glyph-name="equal" unicode="=" horiz-adv-x="443" 
d="M387 456q-31 2 -143 2q-213 0 -213 18q-11 16 -11 29q8 39 35 39q87 -8 271 -8q86 0 86 -14q8 -11 8 -22q0 -42 -33 -42v-2zM388 340q-48 2 -152 2q-201 0 -201 18q-6 0 -11 30q7 38 35 38q137 -9 337 -9q27 -11 27 -35v-7q-5 -37 -35 -37z" />
    <glyph glyph-name="greater" unicode="&#x3e;" horiz-adv-x="406" 
d="M59 268h-6q-27 0 -33 37v7q0 27 60 42l169 65v2q-209 83 -220 97q-6 9 -6 21q8 41 37 41q5 0 207 -85q97 -37 111 -44q8 -15 8 -24q0 -38 -51 -52q-123 -56 -276 -107z" />
    <glyph glyph-name="question" unicode="?" horiz-adv-x="389" 
d="M199 152h-6q-30 0 -30 54v29q0 148 111 399q32 83 32 116v13q0 38 -66 52q-20 4 -35 4q-121 0 -121 -222q-9 -25 -34 -25q-23 0 -30 37q0 217 127 266q36 10 62 10q118 -8 146 -72q14 -22 14 -48v-13q0 -64 -79 -249q-64 -157 -64 -270q0 -44 2 -48q-7 -33 -29 -33z
M197 -45q-44 0 -44 60v12q3 48 42 48q41 0 41 -52v-27q-8 -41 -39 -41z" />
    <glyph glyph-name="at" unicode="@" horiz-adv-x="642" 
d="M314 -59q-14 0 -29 2q-171 19 -242 219q-23 75 -23 165q0 41 5 85q35 318 196 436q56 32 106 32q17 0 34 -3q105 -11 173 -133q48 -128 48 -238q0 -170 -113 -216q-21 -9 -47 -10q-42 4 -53 113l-2 1q-55 -141 -126 -141q-68 0 -83 116v14q0 197 242 205q25 -2 26 -117
q3 -91 13 -120h2q80 20 80 155q0 97 -45 214q-52 81 -126 90l-26 2q-123 0 -201 -221q-42 -149 -42 -268q0 -176 102 -265q59 -48 134 -48q107 0 195 104q31 39 56 104q1 8 24 13q30 -8 30 -32v-6q-39 -114 -112 -173q-94 -79 -196 -79zM246 321q25 0 77 123q21 66 22 73
q-48 -4 -84 -30q-43 -40 -43 -108q0 -43 27 -58h1z" />
    <glyph glyph-name="A" unicode="A" horiz-adv-x="448" 
d="M214 90l41 1q45 0 87 14q0 48 3 95q-7 -13 -25 -13l-21 1q-65 0 -119 -35q-27 -18 -27 -35q0 -8 7 -15q15 -13 54 -13zM387 -128q-28 0 -34 30q-7 69 -10 138q-50 -14 -103 -14l-30 1q-84 3 -113 54q-8 18 -8 35q0 20 14.5 46.5t47.5 46.5q67 42 144 42l23 -1
q20 -2 27 -18q1 -1 5 50q13 169 13 287q0 99 -19 174q-8 32 -24.5 57.5t-51.5 30.5q-64 0 -108 -53q-76 -91 -76 -204q0 -71 34 -139q4 -8 4 -15q0 -9 -8.5 -20.5t-26.5 -11.5q-14 0 -24 15q-43 85 -43 172q0 69 27 137.5t82 123.5q39 39 90 52q-53 15 -94 45h-3
q-61 21 -116 51t-95 83q-32 42 -32 73q0 14 10 26q11 10 23 10q13 0 24 -10t12 -26q0 -6 3 -14q6 -17 19 -32q19 -25 55 -48q-38 61 -60 134q-36 114 -45 223q0 15 9.5 22t21.5 7q17 0 29 -15q5 -8 9.5 -16t4.5 -16q0 -10 -7 -17q5 -38 12 -74l9 21q10 16 24 16q12 0 23 -10
t11 -25q0 -7 -3 -14q-19 -40 -19 -83q0 -41 17 -79q3 -7 3 -14l1 -3q32 -59 84 -105q42 -38 95 -52q6 3 13 4q68 10 119.5 56.5t83.5 105.5q1 1 1 3q0 7 3 14q17 38 17 79q0 43 -19 84q-4 8 -4 15q0 14 11 23.5t24 9.5q14 0 24 -16l9 -21q8 36 12 74q-7 7 -7 17q0 8 5 16
t9 16q12 15 29 15q12 0 21.5 -7t9.5 -22q-9 -109 -44 -223q-23 -73 -61 -134q50 32 72 73q5 13 5 15q0 21 11.5 31.5t24.5 10.5q14 0 26 -13q8 -11 8 -23q0 -19 -11.5 -39t-21.5 -34q-40 -53 -95 -83t-116 -51h-3q-45 -33 -104 -48l-1 -4q74 -18 105 -114q28 -89 28 -229
q0 -65 -9 -190q-13 -139 -13 -243q0 -78 6 -156q4 -7 5 -17v-39q-1 -30 -30 -30z" />
    <glyph glyph-name="B" unicode="B" horiz-adv-x="360" 
d="M221 -13q9 0 19 7q17 15 17 33q0 53 -106 113q-19 10 -37 23l5 -14q35 -108 75 -148q13 -14 27 -14zM98 235q146 154 152 374q0 142 -62 222q-19 24 -45 36q4 -8 4 -15q0 -21 -23 -30q-39 -194 -39 -407q0 -91 13 -180zM224 -76q-48 0 -86 48q-86 113 -104 254
q-12 97 -12 194q0 228 43 431l2 5q-28 34 -28 53q0 9 8 21q2 4 8 7l-24 15q-62 21 -117 51t-95 83q-32 41 -32 73q0 14 10 26q11 10 23 10q13 0 24.5 -10.5t11.5 -32.5l3 -7q14 -42 74 -80q-38 61 -60 133q-36 115 -45 223q0 30 31 30q17 0 29 -15q14 -25 14 -32
q0 -10 -7 -18q5 -37 12 -74l9 22q10 16 24 16q12 0 23 -10t11 -25q0 -7 -3 -14q-19 -40 -19 -83q0 -41 17 -79q3 -7 4 -16q32 -60 84 -107q42 -38 95 -51q6 3 13 4q68 10 120 57q56 50 84 107q0 8 3 15q17 38 17 79q0 43 -19 84q-4 8 -4 15q0 14 11 23.5t24 9.5q14 0 24 -16
l9 -22q8 37 12 74q-7 8 -7 18q0 7 14 32q12 15 29 15q31 0 31 -30q-9 -108 -44 -223q-23 -72 -61 -133q59 37 77 88q0 21 11.5 31.5t24.5 10.5q14 0 26 -13q8 -11 8 -23q0 -19 -11 -39q-45 -78 -117 -117q-55 -30 -117 -51q-47 -33 -106 -48q-1 -4 -4 -7q64 -50 93 -146
q21 -75 21 -143q0 -232 -155 -409q16 -11 34 -22q54 -30 94 -70q33 -33 33 -83q0 -78 -73 -106q-12 -3 -23 -3z" />
    <glyph glyph-name="C" unicode="C" horiz-adv-x="406" 
d="M230 -30q-60 0 -99 53t-52 121q-58 255 -58 483q0 57 2 76q0 69 17 131q19 52 58 72q-25 11 -48 28q-62 21 -117 51t-95 83q-32 42 -32 73q0 14 10 26q11 10 23 10q13 0 24 -10t12 -26l-1 -7l4 -7q6 -17 19 -32q21 -28 54 -48q-37 61 -60 133q-35 115 -44 224
q0 15 9.5 22t21.5 7q17 0 29 -15q5 -8 9.5 -16t4.5 -16q0 -10 -7 -18q4 -37 11 -74q14 38 34 38q12 0 23 -10t11 -25q0 -7 -3 -14q-19 -40 -19 -83q0 -41 17 -79q3 -7 3 -14q0 -2 1 -3q32 -59 83 -106q42 -38 96 -51q5 3 13 4q68 10 119.5 56.5t83.5 105.5l1 3q0 7 3 14
q17 38 17 79q0 43 -19 84q-4 8 -4 15q0 14 11 23.5t24 9.5q14 0 24 -16l9 -22q7 37 11 74q-6 8 -6 18q0 8 5 16t9 16q12 15 29 15q12 0 21.5 -7t9.5 -22q-9 -109 -45 -224q-22 -72 -60 -133q32 19 55 48q13 14 21 35q0 25 12 36t25 11q14 0 26 -13q8 -11 8 -23
q0 -19 -11 -39q-45 -78 -117 -117q-56 -31 -119 -52q-38 -27 -85 -41q8 -3 16 -7t12.5 -13t5 -18t0.5 -18t1 -18q-1 -35 -35 -35q-8 0 -23 6t-15 41q-24 9 -46 9q-36 0 -51 -43q-13 -55 -13 -113v-61q0 -231 58 -479q18 -100 75 -109q29 0 36 23t7 65q0 54 27 101
q13 17 30 17q22 0 35 -18q5 -7 5 -15q0 -9 -7 -20q-19 -34 -19 -75q0 -35 -3 -58q-14 -71 -82 -91q-14 -2 -26 -2z" />
    <glyph glyph-name="D" unicode="D" horiz-adv-x="414" 
d="M195 29q32 0 61 25q48 42 62 98.5t14 115.5q0 60 -8 157q-10 181 -49 336q-21 89 -67 121q-19 10 -36 10q-27 0 -43 -20q-16 -204 -16 -326q0 -302 77 -517h5zM186 -83q-18 0 -26 15l-16 41q-16 5 -31 14t-15 28q0 12 7 20t13 14q-60 189 -65 387l-1 108q0 140 9 280
q-10 9 -10 25q0 19 16 46q2 30 6 60q2 16 12 24q-17 9 -33 20q-62 21 -117 51t-95 83q-32 41 -32 73q0 14 10 26q11 10 23 10q13 0 24.5 -10.5t11.5 -32.5l3 -7q15 -42 74 -80q-38 61 -61 133q-35 115 -44 223q0 30 31 30q17 0 29 -15q14 -25 14 -32q0 -10 -7 -18
q4 -37 12 -74l9 22q10 16 24 16q12 0 23 -10t11 -25q0 -7 -3 -14q-19 -40 -19 -83q0 -41 17 -79q3 -7 3 -15q28 -57 84 -108q43 -38 96 -51q6 3 13 4q68 10 120 57q56 50 84 107q0 8 3 15q17 38 17 79q0 43 -19 84q-4 8 -4 15q0 14 11 23.5t24 9.5q14 0 24 -16l9 -22
q8 37 12 74q-7 8 -7 18q0 7 14 32q12 15 29 15q31 0 31 -30q-9 -108 -45 -223q-22 -72 -60 -133q60 37 77 88q0 21 11.5 31.5t24.5 10.5q14 0 26 -13q8 -11 8 -23q0 -19 -12 -39q-44 -78 -116 -117q-55 -30 -117 -51q-47 -33 -106 -48q-3 -8 -8 -12q30 -11 55 -37
q47 -54 62 -123q22 -82 34 -165q25 -176 25 -353q0 -59 -11 -123.5t-58 -117.5q-41 -44 -98 -58q0 -20 -11 -39q-10 -14 -29 -15zM136 951q4 2 10 3l-10 3v-6z" />
    <glyph glyph-name="E" unicode="E" horiz-adv-x="342" 
d="M204 375q2 1 2 3.5t1 3.5q3 5 3 16l-1 64q0 171 -36 329q-6 44 -16 44q-3 0 -10 -8l-1 -2q-20 -23 -27 -52q-13 -52 -19 -145q-11 -106 -11 -200l1 -45l88 -6q9 -2 26 -2zM203 8q-28 0 -59.5 21.5t-53.5 66.5q-46 100 -57 211q-8 69 -8 138q0 122 23 295q12 105 76 150
h-1q-26 0 -86 43q-63 21 -118 51t-95 83q-32 42 -32 73q0 14 10 26q11 10 23 10q13 0 24 -10t12 -26q0 -7 3 -14q14 -42 74 -80q-38 61 -60 134q-36 114 -45 223q0 29 31 29q17 0 29 -15q14 -25 14 -32q0 -10 -6 -18q4 -37 11 -74l9 22q10 16 24 16q12 0 23 -10t11 -25
q0 -7 -3 -14q-19 -40 -19 -83q0 -41 17 -79q3 -7 4 -16q32 -60 84 -106q42 -38 95 -52q6 3 13 4q68 10 119.5 56.5t83.5 105.5q1 1 1 3q0 7 3 14q17 38 17 79q0 43 -19 84q-4 8 -4 15q0 14 11 23.5t24 9.5q20 0 34 -38q7 37 11 74q-7 8 -7 18q0 7 14 32q12 15 29 15
q31 0 31 -29q-9 -109 -44 -223q-23 -73 -60 -134q59 38 77 88l-1 6q1 16 12 26t24 10q14 0 26 -13q8 -11 8 -23q0 -19 -11 -39q-45 -78 -117 -117q-55 -30 -117 -51q-47 -33 -106 -48q-2 -6 -6 -9q22 -23 32 -78q38 -176 38 -343v-53q0 -30 -7 -59q-16 -41 -59 -41
q-18 0 -111 8q17 -123 53 -198q23 -50 55 -50l8 1q37 13 41 55q2 19 2 36q0 21 -3 42v4q0 29 29 29q7 0 19 -5.5t15 -26t3 -42.5q0 -34 -10.5 -78.5t-66.5 -70.5q-20 -7 -38 -7z" />
    <glyph glyph-name="F" unicode="F" horiz-adv-x="407" 
d="M210 -14q-5 0 -16 2.5t-16 22.5q-36 171 -49 343h-64q-34 0 -34 36q0 35 34 35h60q-3 67 -3 133q0 92 6 184q7 185 114 239q-54 16 -96 46h-3q-61 21 -116 51t-95 83q-32 42 -32 73q0 14 10 26q11 10 23 10q13 0 24.5 -10.5t11.5 -31.5q2 -3 3 -8q6 -17 19 -32
q18 -24 44 -41q6 -3 11 -7q-38 61 -60 134q-36 114 -45 223q0 15 9.5 22t21.5 7q17 0 29 -15q5 -8 9.5 -16t4.5 -16q0 -10 -6 -18q4 -37 11 -74l9 22q10 16 24 16q12 0 23 -10t11 -25q0 -7 -3 -14q-19 -40 -19 -83q0 -41 17 -79q3 -7 3 -14l1 -3q32 -59 84 -105
q42 -38 95 -52q6 3 13 4q68 10 119.5 56.5t83.5 105.5q1 1 1 3q0 7 3 14q17 38 17 79q0 43 -19 84q-4 8 -4 15q0 14 11 23.5t24 9.5q14 0 24 -16l10 -22q7 37 11 74q-7 8 -7 18q0 8 5 16t9 16q12 15 29 15q12 0 21.5 -7t9.5 -22q-9 -109 -44 -223q-23 -73 -60 -134l10 7
q48 33 67 81l-1 6q1 16 12 26t24 10q14 0 26 -13q8 -11 8 -23q0 -19 -11.5 -39t-21.5 -34q-40 -53 -95 -83t-116 -51h-2q-41 -29 -92 -44q26 -7 48 -24q41 -32 41 -86q0 -12 -2 -26q-7 -25 -31 -25q-14 0 -25.5 9.5t-11.5 27.5l1 17q0 21 -20 32q-15 8 -30 8q-9 0 -19 -3
q-53 -25 -68 -83q-15 -52 -18 -111t-3 -179q0 -62 3 -124h19q34 0 34 -35q0 -36 -34 -36h-14q11 -141 37 -280q12 -9 12 -28l-1 -26q-2 -19 -17 -28q-10 -6 -21 -6z" />
    <glyph glyph-name="G" unicode="G" horiz-adv-x="358" 
d="M133 376q2 0 10.5 2t20.5 23q15 30 26 77q51 172 67 316q-5 7 -6 20q0 30 -36 30q-22 0 -37 -13q-25 -21 -37.5 -53t-21.5 -66q-29 -103 -29 -190q0 -66 21 -125q9 -21 22 -21zM207 -31q-74 2 -105 60q-17 31 -17 64q0 29 13 59q10 18 27 18t31 -17q6 -8 6 -18
q0 -9 -4.5 -19.5t-4.5 -22.5q0 -55 51 -55q20 0 36.5 15t19.5 42q4 34 4 67l-2 69l2 243q-7 -26 -16 -55q-18 -54 -51 -88q-25 -26 -61 -26q-113 0 -113 227q0 119 42 240q39 121 121 137q-51 16 -92 45q-62 21 -117 51.5t-95 84.5q-32 42 -32 74q0 14 10 27q11 10 23 10
q13 0 24 -10t12 -27q0 -7 3 -14q6 -18 19 -32q19 -26 55 -49q-38 61 -61 135q-35 117 -44 227q0 30 31 30q17 0 29 -15q14 -26 14 -33q0 -10 -7 -18q4 -38 12 -75l9 22q10 16 24 16q12 0 23 -10t11 -25q0 -7 -3 -14q-19 -41 -19 -85q0 -41 17 -80q3 -7 3 -15q29 -58 84 -110
q43 -38 96 -52q6 3 13 4q22 3 42 10q7 21 33 21q5 0 9 -1q19 12 36 28q55 50 84 109q0 8 3 15q17 39 17 80q0 44 -19 86q-4 8 -4 15q0 14 11 23.5t24 9.5q14 0 24 -16l9 -22q8 37 12 75q-7 8 -7 18q0 8 14 33q12 15 29 15q31 0 31 -30q-9 -110 -45 -226q-22 -74 -60 -136
q60 39 77 89q0 22 11.5 32.5t24.5 10.5q14 0 26 -13q8 -11 8 -24q0 -19 -12 -39q-44 -79 -116 -119q-55 -31 -117 -52q-17 -12 -36 -22q-2 -378 -6 -758l1 -43q0 -25 -2.5 -54t-18.5 -57q-37 -56 -104 -60zM266 901l1 12q-3 -6 -7 -10z" />
    <glyph glyph-name="H" unicode="H" horiz-adv-x="388" 
d="M336 -89q-30 0 -33 30l-4 111q-6 110 -6 158q0 68 -10 134q-8 51 -37 87q-11 13 -20 13q-10 0 -21 -16q-2 -3 -5 -5q-54 -64 -82 -144q9 -104 23 -209q17 -9 17 -25q0 -8 -10 -39q-6 -22 -33 -22q-6 0 -16 3q-18 6 -41 257q-1 0 -1 1q-9 7 -9 20q0 10 6 25
q-17 199 -17 398q0 138 8 275q-49 15 -89 43q-62 21 -117 51t-95 83q-32 42 -32 73q0 14 10 26q11 10 23 10q13 0 24 -10t12 -26q0 -7 3 -14q15 -42 74 -80q-38 61 -60 134q-36 114 -45 223q0 29 31 29q17 0 29 -15q14 -24 14 -32q0 -10 -7 -17q5 -38 12 -74l9 21
q10 16 24 16q12 0 23 -10t11 -25q0 -7 -3 -14q-19 -40 -19 -83q0 -41 17 -79q3 -7 3 -14l1 -3q32 -59 84 -105q31 -28 67 -43l1 10q-13 8 -13 23q0 11 22 45q10 14 29 14q10 0 20 -6.5t10 -23.5l-5 -62q54 13 97 52q51 46 83 105q1 1 1 3q0 7 3 14q17 38 17 79q0 43 -19 84
q-4 8 -4 15q0 14 11 23.5t24 9.5q14 0 24 -16q5 -10 9 -21q8 36 12 74q-7 7 -7 17q0 8 14 32q12 15 29 15q31 0 31 -29q-9 -109 -44 -223q-23 -73 -61 -133q61 38 77 87q0 21 11.5 31.5t24.5 10.5q14 0 26 -13q8 -11 8 -23q0 -19 -11 -39q-45 -77 -117 -117
q-55 -30 -117 -51q-47 -33 -106 -48q-5 -15 -21 -17q-8 -132 -8 -263q0 -141 9 -281q26 41 61 78q27 24 55 24q56 0 94 -72q22 -44 28 -92q7 -54 17 -337q4 -6 4 -16l-1 -50q-1 -30 -31 -30z" />
    <glyph glyph-name="I" unicode="I" horiz-adv-x="179" 
d="M108 -55q-31 0 -37 27q-44 296 -44 593q0 96 5 191q3 36 38 36q34 0 36 -36q-5 -97 -5 -194q0 -264 35 -528q23 -11 23 -35q-1 -17 -19 -34q-14 -20 -32 -20zM89 854q-85 12 -147 56q-62 21 -117 51t-95 83q-32 41 -32 73q0 14 10 26q11 10 23 10q13 0 24 -10t12 -26v-7
l3 -7q6 -17 19 -32q19 -25 55 -48q-38 61 -61 133q-35 115 -44 223q0 30 31 30q17 0 29 -15q14 -25 14 -32q0 -10 -7 -18q4 -37 12 -74l9 22q10 16 24 16q12 0 23 -10t11 -25q0 -7 -3 -14q-19 -40 -19 -83q0 -41 17 -79q3 -7 3 -15l1 -2q32 -59 83 -106q43 -38 96 -51
q6 3 13 4q68 10 119.5 56.5t83.5 105.5l1 2q0 8 3 15q17 38 17 79q0 43 -19 84q-4 8 -4 15q0 14 11 23.5t24 9.5q14 0 24 -16l9 -22q8 37 12 74q-7 8 -7 18q0 7 14 32q12 15 29 15q31 0 31 -30q-9 -108 -45 -223q-22 -72 -60 -133q59 37 77 88v6q1 16 12 26t24 10
q14 0 26 -13q8 -11 8 -23q0 -19 -12 -39q-44 -78 -116 -117q-55 -30 -117 -51q-47 -33 -106 -48q-6 -17 -26 -17z" />
    <glyph glyph-name="J" unicode="J" horiz-adv-x="374" 
d="M192 -64l-8 1q-41 14 -60.5 50.5t-31.5 79.5q-33 104 -42 209q0 31 29 31t34 -31q9 -90 34 -173q14 -69 37 -92q18 33 18 94q0 21 -1.5 42t-27.5 657q-48 -6 -96 -15l-7 -1q-15 0 -24 11t-9 23l2 13q2 18 134 32l1 4q-54 15 -98 45q-62 22 -117 52t-95 83q-32 41 -32 73
q0 14 10 26q11 10 23 10q13 0 24 -10t12 -26l-1 -7l4 -7q6 -18 19 -32q19 -26 55 -49q-38 61 -61 134q-35 115 -44 223q0 30 31 30q17 0 29 -15q14 -25 14 -32q0 -11 -7 -18q4 -37 11 -74l10 22q10 16 24 16q12 0 23 -10t11 -25q0 -7 -3 -14q-19 -40 -19 -83q0 -41 17 -79
q3 -7 3 -15q28 -57 84 -108q43 -38 96 -52q5 4 13 5q68 10 120 57q56 50 84 107q0 8 3 15q17 38 17 79q0 43 -19 84q-4 8 -4 15q0 14 11 23.5t24 9.5q14 0 24 -16l9 -22q7 37 12 74q-7 7 -7 18q0 7 14 32q12 15 29 15q31 0 31 -30q-9 -108 -45 -223q-22 -73 -60 -133
q60 38 77 88q0 21 11.5 31.5t24.5 10.5q14 0 26 -13q8 -11 8 -23q0 -19 -12 -39q-44 -78 -116 -117q-55 -30 -118 -52q-47 -33 -105 -48l-1 -3q32 2 65 3q31 -1 31 -30q0 -31 -31 -34q-39 -1 -77 -3l29 -701q0 -42 -9 -84.5t-41 -78.5q-9 -10 -23 -10z" />
    <glyph glyph-name="K" unicode="K" horiz-adv-x="516" 
d="M438 -29h-5q-17 0 -29 18q-85 141 -149 292q-46 108 -61 159q-23 55 -32 113h-6q-27 0 -42 9v-17q0 -222 51 -443q4 -6 6 -15q4 -29 4 -34q0 -19 -13 -30t-28 -11q-3 0 -14.5 2t-18.5 26q-63 250 -63 502q0 171 29 343q6 28 31 28q15 0 29 -11.5t14 -31.5v-5
q-19 -118 -25 -235q7 3 14 3t13 -1.5t10 -1.5q26 0 59 45q4 6 8 10q110 124 110 217l-4 42q0 17 13.5 28t29.5 11q3 0 14.5 -2t17 -27t5.5 -51q0 -101 -76 -203q-5 -6 -9 -13q-34 -51 -84 -98q-1 -1 -1 -4q7 -75 41 -150q72 -209 193 -408q6 -11 6 -20q0 -10 -9 -22t-29 -14
zM246 950h-9q-81 0 -146 32q-66 11 -125 32q-78 28 -132 97q-18 24 -18 43q0 11 6 22q12 13 26 13q11 0 22 -7q15 -10 15 -29l5 -7q17 -34 85 -68q-47 55 -80 123q-53 108 -79 214l-1 8q0 9 9 17.5t24 8.5q14 0 25 -11q6 -7 12.5 -15.5t6.5 -16.5t-4 -16q10 -36 23 -71l5 23
q9 19 26 19q10 0 22.5 -8t12.5 -26l-1 -9q-8 -28 -8 -55q0 -56 31 -106q4 -6 6 -13q0 -2 1 -3q41 -53 99 -91q48 -31 102 -36q5 4 13 6q119 38 175 192l1 17q7 25 7 50q0 60 -35 111q-6 9 -6 19q0 11 9.5 22t23.5 11q19 0 35 -32l1 38l-1 37q-10 8 -10 22q0 3 9 28
q12 21 33 21q26 0 29 -25q3 -36 3 -72q0 -178 -51 -297q29 23 47 56q12 19 16 43q-2 5 -2 9q0 14 9.5 26t24.5 12q12 0 24.5 -10t12.5 -30q0 -14 -8 -33q-32 -82 -95 -131q-50 -39 -107 -69l-3 -1q-40 -39 -95 -63q-3 -18 -21 -21z" />
    <glyph glyph-name="L" unicode="L" horiz-adv-x="435" 
d="M82 2h-6q-32 0 -34 31q-13 193 -13 386q0 179 11 359q-45 14 -82 40q-62 22 -117 52t-95 83q-32 41 -32 73q0 14 10 26q11 10 23 10q13 0 24 -10t12 -26l-1 -7l4 -7q5 -18 19 -32q19 -26 54 -48q-37 60 -60 133q-35 115 -44 223q0 30 31 30q17 0 29 -15q14 -25 14 -32
q0 -11 -7 -18q4 -37 11 -74l10 22q10 16 24 16q12 0 23 -10t11 -25q0 -7 -3 -14q-19 -40 -19 -83q0 -41 17 -79q3 -7 3 -15q28 -57 84 -108q28 -26 62 -40q6 79 14 159q5 30 35 30q29 0 29 -30q-8 -81 -14 -163q57 13 103 54q56 50 84 107q0 8 3 15q17 38 17 79q0 43 -19 84
q-4 8 -4 15q0 14 11 23.5t24 9.5q14 0 24 -16l9 -22q7 37 11 74q-6 7 -6 18q0 7 14 32q12 15 29 15q31 0 31 -30q-9 -108 -45 -223q-22 -73 -60 -133q60 38 77 88q0 21 11.5 31.5t24.5 10.5q14 0 26 -13q8 -11 8 -23q0 -19 -12 -39q-45 -78 -116 -117q-55 -30 -118 -52
q-47 -33 -105 -48q-6 -16 -26 -16h-1q-11 -174 -11 -349q0 -172 10 -344q128 21 255 45q21 0 30.5 -11.5t9.5 -24.5q0 -3 -1.5 -12t-21.5 -14q-146 -26 -293 -51z" />
    <glyph glyph-name="M" unicode="M" horiz-adv-x="562" 
d="M501 -7q-17 0 -30 17q-53 87 -61 191q-5 62 -5 123q0 28 4 129q5 191 24 382q-16 -34 -26 -70q-32 -104 -49 -214q-19 -115 -53 -222q-11 -27 -37 -27q-17 0 -29 18q-66 115 -116 237l8 -133q7 -164 13 -225l2 -43q2 -26 3 -56l-1 -15q17 -10 17 -34q0 -12 -9.5 -26
t-32.5 -14q-19 0 -30 13q-23 27 -25 192q-1 44 -31 571l1 12q-2 9 -4 16.5t-2 12.5q0 15 11.5 24.5t26.5 9.5q3 0 14.5 -2t18.5 -24q58 -210 157 -402q19 71 31 145q20 116 54.5 225t114.5 199q11 11 26 11q15 -1 25.5 -9.5t10.5 -21.5v-5q-43 -345 -43 -644l1 -88
q0 -87 35 -163q25 -6 25 -34l-1 -20q-5 -36 -38 -36zM202 902q-57 0 -108 18q-66 3 -127 18q-82 19 -143 80q-22 22 -22 45q0 9 4 18q9 17 28 17q26 0 36 -29q5 -10 13 -18q28 -31 73 -45l13 -4q-53 49 -94 113q-66 100 -103 203q-2 5 -2 9q0 8 6 16q9 12 27 12q11 0 22 -8
l13 -13q11 -9 11 -20q0 -6 -3 -13q14 -34 31 -68l3 24q6 23 26 23q8 0 20 -6q16 -8 16 -29v-5q-3 -18 -3 -35q0 -68 45 -122l8 -15q47 -48 109 -79q49 -24 102 -24h4q4 5 11 8q63 28 100 86.5t52 123.5l-1 18q2 14 2 29q0 72 -48 127q-9 11 -9 21q0 9 7 20q10 15 26 15
q10 0 21 -10l14 -19q-3 38 -9 75q-12 7 -12 22l6 28q10 23 33 23q22 0 29 -21q17 -93 17 -196q0 -99 -22 -176q44 49 51 101q0 2 -1.5 9t-1.5 12q0 9 6 20q10 15 28 15q9 0 20 -7.5t13.5 -17.5t2.5 -19q0 -11 -4 -28q-19 -82 -79 -139q-45 -44 -98 -81l-3 -1
q-35 -44 -87 -74q0 -17 -21 -23q-26 -4 -48 -4z" />
    <glyph glyph-name="N" unicode="N" horiz-adv-x="518" 
d="M410 -49q-13 0 -24 12q-59 77 -95.5 166t-83.5 235l-78 228l-1 -237q0 -60 4.5 -132t29.5 -152q2 -8 2 -15q0 -14 -11.5 -24t-27.5 -10q-4 0 -16.5 2t-21.5 26q-28 85 -33 173q-4 65 -4 131l1 469q-13 38 -13 46q0 14 11.5 24t27.5 10q17 0 32 -9q19 -13 20 -35v-24
q145 -421 168 -495q50 -167 98 -251q12 71 12 190q0 47 -2 94l-1 105q1 242 1 485h79l3 -27q0 -11 -3 -19l-1 -329q0 -159 2 -307q0 -56 -3.5 -132t-29.5 -168q-8 -20 -29 -27q-7 -3 -13 -3zM278 966h-4q-83 12 -143 55l-3 1q-61 21 -116 51t-95 83q-32 41 -32 73
q0 14 10 26q11 10 23 10q13 0 24 -10t12 -26v-7l3 -7q6 -18 19 -32q19 -26 55 -49q-38 61 -60 134q-36 115 -45 223q0 16 9.5 23t21.5 7q17 0 29 -15q5 -8 9.5 -16t4.5 -16q0 -11 -6 -18q4 -37 11 -74l9 22q10 16 24 16q12 0 23 -10t11 -25q0 -7 -3 -14q-19 -40 -19 -83
q0 -41 17 -79q3 -7 3 -15l1 -2q32 -59 84 -106q42 -38 95 -52q6 4 13 5q68 10 119.5 56.5t83.5 105.5q1 0 1 2q0 8 3 15q17 38 17 79q0 43 -19 84q-4 8 -4 15q0 14 11 23.5t24 9.5q14 0 24 -16l10 -22q7 37 11 74q-7 7 -7 18q0 8 5 16t9 16q12 15 29 15q12 0 21.5 -7
t9.5 -23q-9 -108 -44 -223q-23 -73 -60 -133q49 31 71 73q4 7 6 15l-1 6q1 16 12 26t24 10q14 0 26 -13q8 -11 8 -23q0 -19 -11 -39q-45 -78 -117 -117q-55 -30 -116 -51l-2 -1q-46 -33 -105 -48q-6 -16 -24 -16z" />
    <glyph glyph-name="O" unicode="O" horiz-adv-x="484" 
d="M260 107q19 0 39 11q53 39 63 122q7 62 7 116l-2 58q0 173 -67 267q-7 -4 -16 -4q-13 0 -20 3q-100 -30 -120 -189q-10 -78 -10 -143q0 -34 4 -78q9 -105 81 -150q20 -13 41 -13zM266 16q-10 0 -57.5 5t-104.5 76q-60 87 -64 199l-1 48q0 204 70 326q43 76 131 101
q3 1 7 1l6 12q-48 15 -86 42q-63 22 -118 52t-95 83q-32 41 -32 73q0 14 10 26q11 10 23 10q13 0 24.5 -10.5t11.5 -32.5l3 -7q6 -18 19 -32q19 -26 55 -49q-38 61 -60 134q-36 115 -45 223q0 30 31 30q17 0 29 -15q14 -25 14 -32q0 -11 -6 -18q4 -37 11 -74l9 22
q10 16 24 16q12 0 23 -10t11 -25q0 -7 -3 -14q-19 -40 -19 -83q0 -41 17 -79q3 -7 3 -15q28 -57 85 -108q42 -38 95 -52q6 4 13 5q68 10 120 57q56 50 84 107q0 8 3 15q17 38 17 79q0 43 -19 84q-4 8 -4 15q0 14 11 23.5t24 9.5q14 0 24 -16l10 -22q7 37 11 74q-7 7 -7 18
q0 7 14 32q12 15 29 15q31 0 31 -30q-9 -108 -44 -223q-23 -73 -60 -133q57 36 77 88l-1 6q1 16 12 26t24 10q14 0 26 -13q8 -11 8 -23q0 -19 -11 -39q-45 -78 -117 -117q-55 -30 -117 -52q-47 -33 -106 -48l-2 -3q69 -72 97 -166q29 -101 29 -243q0 -65 -9.5 -146
t-60.5 -150q-54 -63 -127 -63z" />
    <glyph glyph-name="P" unicode="P" horiz-adv-x="400" 
d="M117 563q105 17 160 87q24 31 24 72q0 54 -39 87q-25 20 -56 20q-37 0 -66 -35q-19 -23 -33 -47l1 -169q7 -6 9 -15zM187 -62q-18 0 -30 15q-57 91 -76.5 198t-24.5 214q-13 118 -13 362q-7 7 -7 17q0 7 7 21l3 110q-45 15 -82 41q-63 21 -118.5 51.5t-95.5 83.5
q-32 42 -32 73q0 14 10 26q11 10 23 10q13 0 24.5 -10.5t11.5 -32.5q16 -47 77 -88q-38 61 -61 134q-35 115 -44 224q0 15 9.5 22t21.5 7q17 0 29 -15q5 -8 9.5 -16t4.5 -16q0 -11 -7 -18q4 -38 12 -74l9 22q10 16 24 16q12 0 23 -10t11 -25q0 -7 -3 -14q-19 -40 -19 -83
q0 -41 17 -79q3 -7 3 -15q0 -2 1 -2q32 -59 83 -106q36 -31 78 -46q7 3 17 3t17 -4q66 11 117 57t83 105q1 0 1 2q0 8 3 15q17 38 17 79q0 43 -19 84q-4 8 -4 15q0 14 11 23.5t24 9.5q14 0 24 -16l9 -22q8 36 12 74q-7 7 -7 18q0 8 5 16t9 16q12 15 29 15q12 0 21.5 -7
t9.5 -22q-9 -109 -45 -224q-22 -73 -60 -133q6 3 11 7q49 34 66 80q0 22 11.5 32.5t24.5 10.5q14 0 26 -13q8 -11 8 -23q0 -19 -11 -39q-45 -78 -117 -117q-56 -31 -119 -52q-45 -33 -104 -48q-2 -5 -6 -9q36 24 79 24q47 0 87 -29q69 -49 69 -136q0 -78 -61 -144
q-70 -70 -192 -86l7 -119q5 -102 22.5 -204.5t71.5 -188.5q6 -10 6 -18q0 -7 -7 -17t-24 -12zM109 852l13 11q-4 -2 -11 -2h-1z" />
    <glyph glyph-name="Q" unicode="Q" horiz-adv-x="493" 
d="M209 12q-41 0 -79 23q-40 27 -60 69q-41 86 -41 274q0 136 27 270q10 51 34 102q19 39 47 69q-27 12 -50 29h-3q-61 21 -116 51t-95 83q-32 42 -32 73q0 14 10 26q11 10 23 10q13 0 24 -10t12 -26q0 -7 3 -14q6 -17 19 -32q19 -25 55 -48q-38 61 -61 134q-35 114 -44 223
q0 15 9.5 22t21.5 7q17 0 29 -15q5 -8 9.5 -16t4.5 -16q0 -10 -7 -17q4 -38 12 -74q4 11 9 21q10 16 24 16q12 0 23 -10t11 -25q0 -7 -3 -14q-19 -40 -19 -83q0 -41 17 -79q3 -7 3 -14q0 -2 1 -3q32 -59 83 -105q41 -36 91 -51q18 6 38 7q56 13 100 53q51 46 83 105l1 3
q0 7 3 14q17 38 17 79q0 43 -19 84q-4 8 -4 15q0 14 11 23.5t24 9.5q14 0 24 -16q5 -10 9 -21q7 36 12 74q-7 7 -7 17q0 8 5 16t9 16q12 15 29 15q12 0 21.5 -7t9.5 -22q-9 -109 -45 -223q-22 -73 -60 -133q47 26 72 72q5 13 5 15q0 21 11.5 31.5t24.5 10.5q14 0 26 -13
q8 -11 8 -23q0 -19 -11 -39q-45 -78 -117 -117q-55 -30 -116 -51h-3q-38 -28 -87 -43q92 -105 92 -315l-1 -51q-2 -97 -12 -193q38 -22 74 -47q19 -15 19 -34q0 -17 -11 -30.5t-28 -13.5q-10 0 -21 7q-22 15 -45 29q-5 -26 -12 -52q-13 -45 -47 -76q-34 -26 -74 -26zM206 95
q25 0 38 23q16 31 23 90q-39 21 -80 39q-21 12 -21 31q0 16 13 30.5t32 14.5q12 0 65 -26q7 75 9 202q0 73 -15 146q-10 43 -32 80l-8 -1q-16 0 -31 12q-11 9 -14 23q-48 -64 -62 -200q-11 -97 -11 -177q0 -148 22 -222q14 -47 58 -63q8 -2 14 -2z" />
    <glyph glyph-name="R" unicode="R" 
d="M102 461q128 56 164 197q5 23 5 49q0 13 -2.5 39t-26.5 56t-60 30q-23 0 -39 -19q-10 -11 -21 -14q-16 -169 -20 -338zM380 4q-42 0 -69 72l-9 20q-52 108 -104 220l-42 87q-26 -13 -54 -22q3 -143 25 -259l3 -23q25 0 28 -39q0 -15 -10 -30t-34 -16q-44 0 -54 60
q-34 162 -34 353q0 166 26 429q6 36 42 36q15 0 22 -7q11 7 23 12q-47 15 -86 42q-62 21 -117 51t-95 83q-32 42 -32 73q0 14 10 26q11 10 23 10q13 0 24 -10t12 -26q0 -7 3 -14q15 -42 74 -80q-38 61 -60 133q-36 115 -45 223q0 30 31 30q17 0 29 -15q14 -25 14 -32
q0 -10 -7 -18q5 -37 12 -74l9 22q10 16 24 16q12 0 23 -10t11 -25q0 -7 -3 -14q-19 -40 -19 -83q0 -41 17 -79q3 -7 3 -15q28 -57 85 -108q42 -38 95 -51q6 3 13 4q68 10 120 57q56 50 84 107q0 8 3 15q17 38 17 79q0 43 -19 84q-4 8 -4 15q0 14 11 23.5t24 9.5q14 0 24 -16
l9 -22q8 37 12 74q-7 8 -7 18q0 7 14 32q12 15 29 15q31 0 31 -30q-9 -108 -44 -223q-23 -72 -61 -133q60 37 77 88q0 21 11.5 31.5t24.5 10.5q14 0 26 -13q8 -11 8 -23q0 -19 -11 -39q-45 -78 -117 -117q-55 -30 -117 -51q-47 -33 -106 -48v-1q67 -20 97 -83
q23 -50 23 -104q0 -116 -69 -206q-26 -35 -58 -61q20 -40 97 -203q63 -132 65.5 -139t5.5 -14q5 -1 11 -4q2 -2 4 -2q18 -11 18 -30q0 -28 -24 -44q-8 -5 -16 -5z" />
    <glyph glyph-name="S" unicode="S" horiz-adv-x="408" 
d="M235 6q-57 0 -103 56q-50 66 -50 145q0 17 2 35q8 39 46 39q35 0 35 -34v-5q-2 -15 -2 -29q0 -60 37 -103q18 -22 33 -22q9 0 18 9q13 20 13 45q0 19 -12 57q-25 76 -100 195q-38 59 -69 121q-49 98 -49 190q0 170 124 238q-45 15 -81 41q-63 21 -118 51t-95 83
q-32 42 -32 73q0 14 10 26q11 10 23 10q13 0 24 -10t12 -26q0 -7 3 -14q15 -42 74 -80q-38 61 -60 134q-36 114 -45 223q0 29 31 29q17 0 29 -15q14 -25 14 -32q0 -10 -6 -18q4 -37 11 -74l9 22q10 16 24 16q12 0 23 -10t11 -25q0 -7 -3 -14q-19 -40 -19 -83q0 -41 17 -79
q3 -7 3 -15q29 -57 85 -107q42 -39 95 -52q6 3 13 4q68 10 120 57q56 50 84 107q0 8 3 15q17 38 17 79q0 43 -19 84q-4 8 -4 15q0 14 11 23.5t24 9.5q20 0 34 -38q7 37 11 74q-7 8 -7 18q0 7 14 32q12 15 29 15q31 0 31 -29q-9 -109 -44 -223q-23 -73 -60 -134q57 36 77 88
l-1 6q1 16 12 26t24 10q14 0 26 -13q8 -11 8 -23q0 -19 -11 -39q-45 -78 -117 -117q-55 -30 -117 -51q-40 -28 -88 -43q23 -9 44 -40q24 -37 24 -76q0 -53 -33 -106q-12 -19 -30 -19q-2 0 -14.5 1t-24.5 19q-7 9 -7 19t6 21q23 37 23 64q0 19 -14 34q-12 10 -25 10
q-26 0 -53 -32q-49 -53 -49 -137q0 -78 42 -159q31 -62 69 -121q117 -176 117 -294q0 -17 -5 -52t-57 -65q-23 -11 -45 -11z" />
    <glyph glyph-name="T" unicode="T" horiz-adv-x="429" 
d="M249 7q-3 0 -15 2t-19 26q-22 95 -22 246q2 192 4 569q-54 -2 -107 -12h-7q-20 0 -31 13.5t-11 29.5q0 3 2 14.5t26 17.5q71 13 141 15q-61 15 -108 48q-62 22 -117 52t-95 83q-32 41 -32 73q0 14 10 26q11 10 23 10q13 0 24.5 -10.5t11.5 -32.5l3 -7q6 -18 19 -32
q19 -26 55 -49q-38 61 -60 134q-36 115 -45 223q0 30 31 30q17 0 29 -15q14 -25 14 -32q0 -11 -7 -18q5 -38 12 -74l9 22q10 16 24 16q12 0 23 -10t11 -25q0 -7 -3 -14q-19 -40 -19 -83q0 -41 17 -79q3 -7 3 -15q28 -57 85 -108q42 -38 95 -52q6 4 13 5q68 10 119.5 56.5
t83.5 105.5q1 0 1 2q0 8 3 15q17 38 17 79q0 43 -19 84q-4 8 -4 15q0 14 11 23.5t24 9.5q14 0 24 -16l9 -22q8 36 12 74q-7 7 -7 18q0 7 14 32q12 15 29 15q31 0 31 -30q-9 -108 -44 -223q-23 -73 -61 -133q58 36 77 87q0 22 11.5 32.5t24.5 10.5q14 0 26 -13q8 -11 8 -23
q0 -19 -11 -39q-45 -78 -117 -117q-55 -30 -117 -52q-47 -33 -106 -48q-2 -5 -5 -8q44 -2 89 -7q37 -6 37 -43q0 -35 -34 -35h-3q-42 6 -84 7l-3 -480q-3 -53 -3 -106q0 -26 1.5 -79.5t19.5 -129.5l1 -11q0 -17 -13 -27.5t-29 -10.5z" />
    <glyph glyph-name="U" unicode="U" horiz-adv-x="427" 
d="M176 9q-58 0 -96 62q-49 81 -49 227q1 254 62 485q7 28 36 28q15 0 28 -10.5t13 -27.5l-1 -11q-53 -197 -57 -400l-1 -49q0 -110 23 -170q19 -52 42 -52q13 0 28 24q29 61 39 131l8 37q49 230 74 591q2 19 15 28.5t28 9.5q14 0 25 -9t11 -27l-21 -318q-24 -332 -24 -374
q0 -35 11 -69q26 -9 26 -35q0 -21 -18 -37q-15 -10 -27 -10q-21 0 -36 20.5t-27 60.5q-16 -45 -42 -72.5t-70 -32.5zM246 867q-84 0 -151 34q-66 12 -124 34q-78 28 -132 97q-17 22 -17 44q0 11 6 21q10 13 26 13q11 0 22 -7t14 -23q8 -41 90 -82q-46 55 -79 124
q-52 108 -77 214l-1 8q0 9 8.5 17.5t24.5 8.5q14 0 25 -11q6 -7 12.5 -15.5t6.5 -17.5q0 -8 -4 -15q9 -37 22 -72q2 12 6 23q8 19 26 19q9 0 21.5 -7.5t12.5 -26.5l-1 -9q-9 -29 -9 -58q0 -54 31 -103q4 -6 5 -14l1 -2q41 -54 99 -92q47 -32 102 -37q5 4 12 6
q121 37 177 190l1 2l-1 6l1 9q7 27 7 53q0 59 -33 108q-6 10 -6 20t9 21.5t26 11.5t33 -33l1 75q-10 7 -10 19q0 5 9 31q12 20 34 20q25 0 28 -25q2 -32 2 -63q0 -182 -53 -305q47 38 63 93l-1 14q0 14 9.5 26t24.5 12q12 0 24 -9q12 -13 12 -33q0 -14 -8 -32
q-33 -82 -96 -130q-50 -38 -107 -67l-3 -1q-40 -39 -96 -63q-1 -5 -3 -9q-5 -8 -22 -12z" />
    <glyph glyph-name="V" unicode="V" horiz-adv-x="402" 
d="M247 4q-8 0 -18.5 7t-14.5 20q-136 408 -189 835q0 33 32 33q33 0 39 -34q46 -366 154 -717q1 2 6 52q34 321 54 602q0 7 1 13h70q0 -25 -2 -37q-15 -206 -35 -412q-26 -275 -39 -311q-11 -33 -48 -49q-5 -2 -10 -2zM241 892q-5 0 -11 2q-78 37 -123 97q-54 39 -97.5 84
t-65.5 107q-12 33 -12 57q0 12 3 22q9 26 34 26q18 0 28 -18q5 -9 5 -18q0 -8 -3 -16l1 -8q0 -43 46 -99q-17 69 -17 146q0 119 24 226q7 21 25 21q41 0 41 -55q0 -13 -13 -20q-7 -37 -11 -74q8 9 17.5 18t18.5 9q16 0 26 -17q5 -8 5 -17q0 -12 -9 -23q-51 -55 -51 -130
l1 -29l-1 -11q13 -67 48 -127q29 -49 76 -78h13q19 -3 37 -3q48 0 103 25.5t104 73.5q2 7 7 13q49 54 49 128q0 14 -2 28l1 16q7 23 33 23q5 0 10 -2q17 -5 21 -46q17 33 33 67q-3 6 -3 12q0 10 24 33q11 8 22 8q6 0 11 -2q22 -7 22 -25q0 -5 -2 -12q-41 -101 -109 -200
q-43 -62 -97 -109q66 17 100 61l1 5q10 26 35 26q22 0 31 -22q3 -7 3 -14q0 -22 -25 -44q-66 -61 -146 -77q-61 -12 -127 -14q-47 -14 -97 -14h-18q-8 -10 -19 -10z" />
    <glyph glyph-name="W" unicode="W" horiz-adv-x="494" 
d="M401 -9q-13 0 -25 10q-70 68 -95 160l-6 23q-13 -43 -20.5 -75.5t-21.5 -63.5q-18 -36 -58 -41q-29 0 -36 26q-37 163 -52 331q-62 496 -62 507q0 32 33 32t39 -35q55 -440 60 -490q11 -115 32 -229l61 211q9 26 33 26q33 0 38 -36q5 -80 26 -158q11 -46 36 -84
q14 70 14 205q-2 346 -2 469q-17 8 -17 27q0 6 2 13q13 36 47 36q23 0 31.5 -12.5t8.5 -23.5v-207q2 -172 2 -307q0 -58 -4 -131t-29 -157q-9 -26 -35 -26zM284 921q-85 12 -146 56q-63 21 -118 51t-95 83q-32 42 -32 73q0 14 10 26q11 10 23 10q13 0 24 -10t12 -26v-6l3 -8
q6 -17 19 -32q19 -25 55 -48q-37 61 -60 133q-36 115 -45 223q0 30 31 30q17 0 29 -15q14 -25 14 -32q0 -10 -6 -18q4 -37 11 -74l9 22q10 16 24 16q12 0 23 -10t11 -25q0 -7 -3 -14q-19 -40 -19 -83q0 -41 17 -79q3 -7 3 -15l1 -2q32 -59 84 -106q42 -38 95 -51q6 3 13 4
q68 10 119.5 56.5t83.5 105.5l1 2q0 8 3 15q17 38 17 79q0 43 -19 84q-4 8 -4 15q0 14 11 23.5t24 9.5q14 0 24 -16q6 -11 10 -22q7 37 11 74q-7 8 -7 18q0 7 14 32q12 15 29 15q31 0 31 -30q-9 -108 -44 -223q-23 -72 -60 -133q49 31 71 73q4 8 6 15l-1 6q1 16 12 26t24 10
q14 0 26 -13q8 -11 8 -23q0 -19 -11 -39q-45 -78 -117 -117q-55 -30 -117 -51q-47 -33 -105 -48q-7 -17 -27 -17z" />
    <glyph glyph-name="X" unicode="X" 
d="M369 -37q-4 0 -16.5 2t-21.5 25l-112 340l-77 -288q-9 -28 -36 -28q-16 0 -28.5 10t-12.5 26q0 5 109 416q-140 426 -140 436q0 14 11.5 24t27.5 10q4 0 16.5 -2t21.5 -26l100 -303l27 102q27 85 27 173l-1 32q0 35 36 35t42 -38l1 -35q0 -88 -25 -173q-30 -117 -62 -232
q153 -463 153 -471q0 -15 -12 -25t-28 -10zM203 980q-85 13 -147 56q-62 21 -117 51t-95 83q-32 42 -32 73q0 14 10 26q11 10 23 10q13 0 24 -10t12 -26v-6l3 -8q14 -41 74 -80q-38 61 -61 134q-35 114 -44 223q0 29 31 29q17 0 29 -15q14 -24 14 -32q0 -10 -7 -18
q4 -37 12 -73l9 21q10 16 24 16q12 0 23 -10t11 -25q0 -7 -3 -14q-19 -40 -19 -83q0 -41 17 -79q3 -7 3 -15q33 -61 84 -107q43 -38 96 -52q6 3 13 4q68 10 119.5 56.5t83.5 105.5l1 3q0 7 3 14q17 38 17 79q0 43 -19 84q-4 8 -4 15q0 14 11 23.5t24 9.5q14 0 24 -16l9 -21
q7 36 12 73q-7 8 -7 18q0 8 14 32q12 15 29 15q31 0 31 -29q-9 -109 -45 -223q-22 -73 -60 -134q59 38 77 88v6q1 16 12 26t24 10q14 0 26 -13q8 -11 8 -23q0 -19 -12 -39q-44 -77 -116 -117q-55 -30 -117 -51q-47 -33 -106 -48q-6 -17 -26 -17z" />
    <glyph glyph-name="Y" unicode="Y" horiz-adv-x="408" 
d="M180 -95l-1 1l-1 -1h2zM151 -132q-23 0 -34.5 10.5t-11.5 26.5q1 30 20 53q12 14 25 14q21 0 33 -26q31 5 57 24q42 29 55 84q7 35 7 71q0 34 -9 97q-11 -78 -44.5 -123.5t-85.5 -45.5q-16 0 -32 5q-54 21 -70.5 89t-22.5 172q-16 166 -16 335q0 122 8 245q5 36 41 36
q34 0 34 -36q-8 -121 -8 -243q0 -182 20 -383q7 -83 18 -119q9 -27 31 -27q15 0 27 19q23 38 30 111l2 8q17 116 17 258q0 171 -15 342q0 36 33 36q36 0 42 -36l65 -662q6 -50 6 -99q0 -13 -1 -50.5t-36 -91.5q-69 -94 -185 -94zM193 973q-85 12 -147 56q-62 21 -117 51
t-95 83q-32 42 -32 73q0 14 10 26q11 10 23 10q13 0 24 -10t12 -26l-1 -6l4 -8q5 -17 19 -32q18 -25 54 -48q-37 61 -60 133q-35 115 -44 223q0 30 31 30q17 0 29 -15q14 -25 14 -32q0 -10 -7 -18q4 -37 11 -74l10 22q10 16 24 16q12 0 23 -10t11 -25q0 -7 -3 -14
q-19 -40 -19 -83q0 -41 17 -79q3 -7 3 -15l1 -2q32 -59 83 -106q42 -38 96 -51q5 3 13 4q68 10 119.5 56.5t83.5 105.5l1 2q0 8 3 15q17 38 17 79q0 43 -19 84q-4 8 -4 15q0 14 11 23.5t24 9.5q14 0 24 -16l9 -22q7 37 11 74q-6 8 -6 18q0 7 14 32q12 15 29 15q31 0 31 -30
q-9 -108 -45 -223q-22 -72 -60 -133q59 37 77 88v6q1 16 12 26t24 10q14 0 26 -13q8 -11 8 -23q0 -19 -12 -39q-45 -78 -116 -117q-55 -30 -118 -51q-47 -33 -105 -48q-6 -17 -26 -17z" />
    <glyph glyph-name="Z" unicode="Z" horiz-adv-x="438" 
d="M365 20l-240 1q-21 1 -33 17q-9 10 -9 23q0 6 2 13q104 333 183 673l-195 -8q-39 0 -39 40q0 38 39 43l91 4q-53 15 -95 45q-63 21 -118 51t-95 83q-32 42 -32 73q0 14 10 26q11 10 23 10q13 0 24 -10t12 -26q0 -7 3 -14q15 -42 74 -80q-37 61 -60 133q-36 115 -45 223
q0 30 31 30q17 0 29 -15q14 -25 14 -32q0 -10 -6 -18q4 -37 11 -74l9 22q10 16 24 16q12 0 23 -10t11 -25q0 -7 -3 -14q-19 -40 -19 -83q0 -41 17 -79q3 -7 3 -15q28 -57 85 -108q42 -38 95 -51q6 3 13 4q68 10 120 57q56 50 84 107q0 8 3 15q17 38 17 79q0 43 -19 84
q-4 8 -4 15q0 14 11 23.5t24 9.5q20 0 34 -38q7 37 11 74q-7 8 -7 18q0 7 14 32q12 15 29 15q31 0 31 -30q-9 -108 -44 -223q-23 -72 -60 -133q57 36 77 88l-1 6q1 16 12 26t24 10q14 0 26 -13q8 -11 8 -23q0 -19 -11 -39q-45 -78 -117 -117q-55 -30 -117 -51
q-47 -33 -105 -48l-1 -3l80 3q21 0 33 -16q8 -12 8 -26l-1 -10q-78 -342 -180 -676q64 -1 184 -1q40 -3 40 -42t-40 -41z" />
    <glyph glyph-name="bracketleft" unicode="[" horiz-adv-x="174" 
d="M120 -20h-66q-34 0 -34 41v846q0 43 32 43h68q22 0 28 -31q0 -28 -39 -31h-26v-805h39q28 0 32 -34q0 -24 -34 -29z" />
    <glyph glyph-name="backslash" unicode="\" horiz-adv-x="447" 
d="M396 -21h-11q-26 0 -47 74q-318 787 -318 796q0 30 40 36q29 0 56 -91q311 -769 311 -781q-7 -34 -31 -34z" />
    <glyph glyph-name="bracketright" unicode="]" horiz-adv-x="172" 
d="M118 -36h-65q-33 5 -33 28v5q5 30 28 30h41v811h-37q-22 0 -26 30q0 33 49 33h28q49 0 49 -33v-873q0 -26 -34 -31z" />
    <glyph glyph-name="asciicircum" unicode="^" horiz-adv-x="486" 
d="M424 778h-10q-27 0 -65 62q-54 73 -98 124q-65 -76 -159 -174q-10 -6 -23 -6q-49 0 -49 38q0 20 78 96q0 4 59 67q61 78 70 80t17 3q42 0 63 -37q70 -79 155 -201l4 -19q-11 -33 -42 -33z" />
    <glyph glyph-name="underscore" unicode="_" horiz-adv-x="435" 
d="M376 -84q-343 0 -343 17q-13 13 -13 32q7 36 31 36q131 -7 325 -7q34 0 39 -36q0 -42 -39 -42z" />
    <glyph glyph-name="grave" unicode="`" horiz-adv-x="260" 
d="M204 794q-17 0 -63 36q-102 65 -117 81q-4 12 -4 22q7 33 32 33h6q13 0 86 -52q78 -51 91 -65q5 -16 5 -19q-7 -36 -36 -36z" />
    <glyph glyph-name="a" unicode="a" horiz-adv-x="448" 
d="M214 90l41 1q45 0 87 14q0 48 3 95q-7 -13 -25 -13l-21 1q-65 0 -119 -35q-27 -18 -27 -35q0 -8 7 -15q15 -13 54 -13zM387 -128q-28 0 -34 30q-7 69 -10 138q-50 -14 -103 -14l-30 1q-84 3 -113 54q-8 18 -8 35q0 20 14.5 46.5t47.5 46.5q67 42 144 42l23 -1
q20 -2 27 -18q1 -1 5 50q13 169 13 287q0 99 -19 174q-8 32 -24.5 57.5t-51.5 30.5q-64 0 -108 -53q-76 -91 -76 -204q0 -71 34 -139q4 -8 4 -15q0 -9 -8.5 -20.5t-26.5 -11.5q-14 0 -24 15q-43 85 -43 172q0 69 27 137.5t81.5 123t130.5 58.5q103 0 141 -118
q28 -89 28 -229q0 -65 -9 -190q-13 -139 -13 -243q0 -78 6 -156q4 -7 5 -17v-39q-1 -30 -30 -30z" />
    <glyph glyph-name="b" unicode="b" horiz-adv-x="360" 
d="M221 -13q9 0 19 7q17 15 17 33q0 53 -106 113q-19 10 -37 23l5 -14q35 -108 75 -148q13 -14 27 -14zM98 235q135 143 151 340l1 34q0 142 -62 222q-19 24 -45 36q4 -8 4 -15q0 -21 -23 -30q-39 -194 -39 -407q0 -91 13 -180zM224 -76q-48 0 -86 48q-86 113 -104 254
q-12 97 -12 194q0 228 43 431l2 5q-28 34 -28 53q0 9 7.5 21t42.5 12q77 0 128.5 -51t75.5 -131q21 -75 21 -143q0 -232 -155 -409q16 -11 34 -22q54 -30 94 -70q33 -33 33 -83q0 -78 -73 -106q-12 -3 -23 -3z" />
    <glyph glyph-name="c" unicode="c" horiz-adv-x="406" 
d="M230 -30q-60 0 -99 53t-52 121q-58 255 -58 483q0 57 2 76q0 69 17 131q32 85 117 85q49 0 100 -25q9 -4 13.5 -13t5 -18t0.5 -18t1 -18q-1 -35 -35 -35q-8 0 -23 6t-15 41q-24 9 -46 9q-36 0 -51 -43q-13 -55 -13 -113v-61q0 -231 58 -479q18 -100 75 -109h2q27 0 34 23
t7 53v12q0 54 27 101q13 17 30 17q22 0 35 -18q5 -7 5 -15q0 -9 -7 -20q-19 -34 -19 -75v-11q0 -24 -3 -47q-14 -71 -82 -91q-14 -2 -26 -2z" />
    <glyph glyph-name="d" unicode="d" horiz-adv-x="414" 
d="M187 -83h-2q-17 0 -25 15l-16 41q-16 5 -31 14t-15 28q0 12 7 20t13 14q-60 189 -65 387l-1 108q0 140 9 280q-10 9 -10 25q1 21 16 46q2 30 5 59q3 20 19 27q9 4 17 4q7 0 17.5 -5t10.5 -29q10 5 35 5q57 0 101 -45q47 -54 62 -123q22 -82 34 -165q25 -176 25 -353
q0 -59 -11 -123.5t-58 -117.5q-41 -44 -98 -58q0 -20 -11 -39q-10 -14 -28 -15zM195 29q32 0 61 25q48 42 62 98.5t14 115.5q-1 85 -10 178q-8 160 -47 315q-8 34 -22.5 67t-44.5 54q-19 10 -36 10q-27 0 -43 -20q-16 -204 -16 -326q0 -302 77 -517h5z" />
    <glyph glyph-name="e" unicode="e" horiz-adv-x="342" 
d="M204 375q2 1 2 3.5t1 3.5q3 5 3 16l-1 27v37q0 171 -35 323l-5 29q-5 21 -12 21q-3 0 -10 -8l-1 -2q-38 -43 -44 -168l-2 -29q-11 -106 -11 -200l1 -45zM203 8q-28 0 -59.5 21.5t-53.5 66.5q-46 100 -57 211q-8 69 -8 138q0 40 3 80q6 108 19 214t77 151q19 12 37 12
q20 0 40 -15q15 -15 22 -35t12 -45q38 -176 38 -343v-53q0 -30 -7 -59q-16 -41 -59 -41q-37 0 -88 6l-23 2q11 -81 37 -160q5 -16 15.5 -38t25 -36t30.5 -14l8 1q37 13 41 55q2 19 2 36q0 21 -3 42v4q0 18 14 25q7 4 15 4q7 0 19 -5.5t15 -26t3 -42.5q0 -34 -10.5 -78.5
t-66.5 -70.5q-20 -7 -38 -7z" />
    <glyph glyph-name="f" unicode="f" horiz-adv-x="373" 
d="M210 -14q-5 0 -16 2.5t-16 22.5q-36 171 -49 343h-64q-23 0 -30 18q-4 9 -4 18q0 35 34 35h60q-3 67 -3 133q0 92 6 184q3 75 29 145.5t101 101.5q22 6 42 6q43 0 78 -27q41 -32 41 -86q0 -12 -2 -26q-7 -25 -31 -25q-14 0 -25.5 9.5t-11.5 27.5l1 17q0 21 -20 32
q-15 8 -30 8q-9 0 -19 -3q-53 -25 -68 -83q-15 -52 -18 -111t-3 -179q0 -62 3 -124h19q22 0 30 -17q4 -9 4 -18q0 -36 -34 -36h-14q11 -141 37 -280q12 -9 12 -28l-1 -26q-2 -19 -17 -28q-10 -6 -21 -6z" />
    <glyph glyph-name="g" unicode="g" horiz-adv-x="358" 
d="M133 376q2 0 10.5 2t20.5 23q15 30 26 77q51 172 67 316q-5 7 -6 20q0 30 -36 30q-22 0 -37 -13q-25 -21 -37.5 -53t-21.5 -66q-26 -93 -29 -190q0 -66 21 -125q9 -21 22 -21zM207 -31q-74 2 -105 60q-17 31 -17 64q0 29 13 59q10 18 27 18q1 0 10 -1t21 -16q6 -8 6 -18
q0 -9 -4.5 -19.5t-4.5 -22.5q0 -49 51 -55q20 0 36.5 15t19.5 42q4 34 4 67l-2 69l2 243q-7 -26 -16 -55q-18 -54 -51 -88q-25 -26 -61 -26q-13 0 -27 3q-38 11 -54 46q-32 68 -32 178q0 119 42 240q27 83 79 120q33 20 68 20q24 0 54 -11q2 32 2 64q0 24 18 33q9 4 17 4
q32 0 34 -34q-2 -391 -6 -785l1 -43q0 -25 -2.5 -54t-18.5 -57q-37 -56 -104 -60z" />
    <glyph glyph-name="h" unicode="h" horiz-adv-x="388" 
d="M336 -89q-30 0 -33 30l-4 111q-6 110 -6 158q0 68 -10 134q-8 51 -37 87q-11 13 -20 13q-10 0 -21 -16q-2 -3 -5 -5q-54 -64 -82 -144q9 -104 23 -209l8 -4q9 -8 9 -21q0 -8 -10 -39q-4 -14 -18 -19q-8 -3 -15 -3q-6 0 -16 3q-18 6 -41 257q-1 0 -1 1q-9 7 -9 20
q0 10 6 25q-17 199 -17 398q0 175 13 350q-13 8 -13 23q0 8 5 17q8 14 17.5 28t28.5 14q10 0 20 -6.5t10 -20.5v-3q-18 -202 -18 -403q0 -141 9 -281q26 41 61 78q27 24 55 24q14 0 42 -13.5t51 -58t29 -92.5q7 -54 17 -337q4 -6 4 -16l-1 -50q-1 -30 -31 -30z" />
    <glyph glyph-name="i" unicode="i" horiz-adv-x="179" 
d="M97 -55q-4 0 -16 2.5t-16 20.5q-38 256 -38 513q0 83 4 165q2 21 18 28q8 4 15 4q30 0 31 -32q-4 -84 -4 -168q0 -228 30 -456q12 -6 18 -20q2 -5 2 -10q0 -15 -16 -30q-13 -17 -28 -17zM84 861h-8q-13 0 -22.5 9t-9.5 23q0 13 10 22t22 9h8q13 0 22.5 -9t9.5 -22
q0 -14 -10 -23t-22 -9z" />
    <glyph glyph-name="j" unicode="j" horiz-adv-x="374" 
d="M192 -64l-8 1q-41 14 -60.5 50.5t-31.5 79.5q-33 104 -42 209v2q0 18 14 25q7 4 15 4q29 0 34 -31q9 -90 34 -173q6 -29 19 -62q7 -19 18 -30q13 24 16 53q2 21 2 41q0 21 -1.5 42t-27.5 657q-48 -6 -96 -15l-7 -1q-15 0 -24 11t-9 23l2 13q2 18 134 32q5 18 28 18
q19 0 27 -12q42 3 85 4q31 -1 31 -30q0 -31 -31 -34q-39 -1 -77 -3l22 -530q7 -144 7 -171q0 -42 -9 -84.5t-41 -78.5q-9 -10 -23 -10z" />
    <glyph glyph-name="k" unicode="k" horiz-adv-x="516" 
d="M438 -29h-5q-17 0 -29 18q-126 209 -206 438l-4 13q-23 55 -32 113h-6q-27 0 -42 9v-17q0 -222 51 -443q4 -6 6 -15q4 -29 4 -34q0 -19 -13 -30t-28 -11q-3 0 -14.5 2t-18.5 26q-63 250 -63 502q0 171 29 343q6 28 31 28q15 0 29 -11.5t14 -31.5v-5q-19 -118 -25 -235
q7 3 14 3t13 -1.5t10 -1.5q26 0 59 45q4 6 8 10q110 124 110 217q0 16 -3 33l-1 9q0 17 13.5 28t29.5 11q3 0 14.5 -2t17 -27t5.5 -51q0 -101 -76 -203q-5 -6 -9 -13q-34 -51 -84 -98q-1 -1 -1 -6q7 -73 41 -148q72 -209 193 -408q6 -11 6 -20q0 -10 -9 -22t-29 -14z" />
    <glyph glyph-name="l" unicode="l" horiz-adv-x="435" 
d="M82 2h-6q-12 0 -22.5 7t-11.5 24q-13 193 -13 386q0 291 30 583q5 30 35 30q29 0 29 -28v-2q-30 -294 -30 -588q0 -172 10 -344q128 21 255 45h5q16 0 25.5 -11.5t9.5 -24.5q0 -3 -1.5 -12t-21.5 -14q-146 -26 -293 -51z" />
    <glyph glyph-name="m" unicode="m" horiz-adv-x="562" 
d="M501 -7q-17 0 -30 17q-53 87 -61 191q-5 62 -5 123q0 28 4 129q5 191 24 382q-16 -34 -26 -70q-32 -104 -49 -214q-19 -115 -53 -222q-11 -27 -37 -27q-17 0 -29 18q-66 115 -116 237l13 -221q4 -94 8 -137l2 -43q3 -32 3 -62l-1 -9q10 -6 15 -21q2 -7 2 -13
q0 -12 -9.5 -26t-32.5 -14q-19 0 -30 13q-23 27 -25 192q-1 44 -31 571l1 12q-2 9 -4 16.5t-2 12.5q0 15 11.5 24.5t26.5 9.5q3 0 14.5 -2t18.5 -24q58 -210 157 -402q19 71 31 145q20 116 54.5 225t114.5 199q11 11 26 11q15 -1 25.5 -9.5t10.5 -21.5v-5q-31 -248 -40 -497
q-3 -74 -3 -147l1 -88q0 -87 35 -163q25 -6 25 -34l-1 -20q-5 -36 -38 -36z" />
    <glyph glyph-name="n" unicode="n" horiz-adv-x="518" 
d="M410 -49q-13 0 -24 12q-59 77 -95.5 166t-83.5 235l-78 228l-1 -237q0 -60 4.5 -132t29.5 -152q2 -8 2 -15q0 -14 -11.5 -24t-27.5 -10q-4 0 -16.5 2t-21.5 26q-28 85 -33 173q-4 65 -4 131l1 469l-11 32q-2 7 -2 14q0 14 11.5 24t27.5 10l8 -1q42 -8 44 -43v-24
q145 -421 168 -495q50 -167 98 -251q12 71 12 190q0 47 -2 94l-1 105q1 242 1 485h79l3 -27q0 -11 -3 -19l-1 -204q0 -284 2 -432q0 -56 -3.5 -132t-29.5 -168q-8 -20 -29 -27q-7 -3 -13 -3z" />
    <glyph glyph-name="o" unicode="o" horiz-adv-x="484" 
d="M260 107q19 0 39 11q53 39 63 122q7 62 7 116l-2 66q0 83 -21 161q-14 53 -46 98q-7 -4 -16 -4q-13 0 -20 3q-100 -30 -120 -189q-10 -78 -10 -143q0 -34 4 -78q9 -105 81 -150q20 -13 41 -13zM266 16q-10 0 -57.5 5t-104.5 76q-60 87 -64 199l-1 48q0 204 70 326
q43 76 131 101q3 1 7 1l6 13q13 23 38 23q21 0 36 -14q135 -131 135 -380l1 -39q0 -65 -9.5 -146t-60.5 -150q-54 -63 -127 -63z" />
    <glyph glyph-name="p" unicode="p" horiz-adv-x="400" 
d="M117 563q37 6 75 23q52 22 85 64q24 31 24 72q0 54 -39 87q-25 20 -56 20q-38 -1 -66 -35q-19 -23 -33 -47l1 -169q7 -6 9 -15zM187 -62h-4q-14 0 -26 15q-57 91 -76.5 198t-24.5 214l-2 19q-11 158 -11 317v26q-7 7 -7 17q0 7 7 21q1 71 5 142q4 31 34 31t30 -31
q-1 -28 -3 -55q42 39 99 40q47 0 87.5 -29t58.5 -77q10 -29 10 -59q0 -78 -61 -144q-70 -70 -192 -86l7 -119q5 -102 22.5 -204.5t71.5 -188.5q6 -10 6 -18q0 -7 -7 -17t-24 -12z" />
    <glyph glyph-name="q" unicode="q" horiz-adv-x="493" 
d="M204 99q50 0 61 111q-38 20 -77 37q-22 12 -22 31q0 16 13.5 30.5t32.5 14.5q8 0 18 -4q23 -10 45 -21q9 100 9 200q0 84 -15 150q-14 61 -54 111q-7 9 -9 18q-9 -5 -17 -14q-22 -26 -35.5 -62t-18.5 -65q-23 -125 -23 -270q0 -200 48 -248q22 -19 44 -19zM208 16
q-23 0 -44 7q-83 33 -107.5 116t-25.5 164q-3 47 -3 94q0 171 39 307q19 66 66 116.5t113 50.5q23 0 45 -6q30 -10 30 -41q0 -15 -11 -29l-12 -11q59 -89 66 -222q2 -44 2 -89q0 -108 -13 -215q37 -22 74 -46q20 -14 20 -32q0 -23 -11 -36.5t-27 -13.5q-10 0 -21.5 7.5
t-23.5 14.5l-24 14l-9 -40q-10 -40 -36 -71q-39 -39 -87 -39z" />
    <glyph glyph-name="r" unicode="r" 
d="M380 4q-42 0 -69 72l-9 20q-52 108 -104 220l-42 87q-26 -13 -54 -22q3 -143 25 -259l3 -23q24 0 28 -39q0 -15 -10 -30t-34 -16q-44 0 -54 60q-34 162 -34 353q0 166 26 429q6 36 42 36q15 0 22 -7q32 20 68 20q31 0 66 -15q50 -25 73 -74.5t23 -103.5q0 -116 -69 -206
q-26 -35 -58 -61q20 -40 97 -203q63 -132 65.5 -139t5.5 -14q5 -1 11 -4q2 -2 4 -2q18 -11 18 -30q0 -28 -24 -44q-8 -5 -16 -5zM102 461q128 56 164 197q5 23 5 49q0 13 -2.5 39t-25.5 56q-25 30 -61 30q-23 0 -39 -19q-10 -11 -21 -14q-16 -169 -20 -338z" />
    <glyph glyph-name="s" unicode="s" horiz-adv-x="408" 
d="M235 6q-18 0 -47 11.5t-56 44.5q-50 66 -50 145q0 17 2 35q5 26 26 35q10 4 20 4q35 0 35 -34v-5q-2 -15 -2 -29q0 -41 19 -79q18 -33 43 -44q4 -2 8 -2q9 0 18 9q13 20 13 45q0 19 -12 56.5t-30 71.5q-32 64 -70 123.5t-69 121.5t-44 131q-5 29 -5 59q0 172 127 240
q29 14 58 14q13 0 40 -6.5t51.5 -43t24.5 -75.5q0 -8 -3.5 -36t-29.5 -70q-12 -19 -30 -19q-2 0 -14.5 1t-24.5 19q-7 9 -7 19t6 21q13 21 21 49q2 8 2 15q0 19 -14 34q-12 10 -25 10q-8 0 -23.5 -7.5t-29.5 -24.5q-49 -53 -49 -137q0 -14 2 -28q8 -69 39.5 -131t69.5 -121
q76 -114 106 -216q11 -40 11 -78q0 -17 -5 -52t-57 -65q-23 -11 -45 -11z" />
    <glyph glyph-name="t" unicode="t" horiz-adv-x="294" 
d="M149 7q-3 0 -15 2t-19 26q-19 80 -21 163l-1 83l3 172q0 199 1 397q-54 -2 -107 -12h-7q-20 0 -31 13.5t-11 29.5q0 3 2 14.5t26 17.5q87 16 174 16q58 0 116 -7q25 -4 33 -24q4 -10 4 -19t-4 -18q-8 -17 -30 -17h-3q-42 6 -84 7l-1 -382q-1 -48 -3 -99.5t-2 -104.5
q0 -26 1.5 -79.5t19.5 -129.5l1 -11q0 -17 -13 -27.5t-29 -10.5z" />
    <glyph glyph-name="u" unicode="u" horiz-adv-x="427" 
d="M176 9q-30 0 -55 18t-41 44q-49 81 -49 227q1 254 62 485q7 28 36 28q15 0 28 -10.5t13 -27.5l-1 -11q-53 -197 -57 -400l-1 -49q0 -68 12 -135q3 -15 10.5 -35t18.5 -36t24 -16t28 24q29 61 39 131l8 37q49 230 74 591q2 19 15 28.5t28 9.5q14 0 25 -9t11 -27l-21 -318
q-24 -332 -24 -374q0 -35 11 -69q13 -4 19.5 -14t6.5 -21q0 -21 -18 -37q-15 -10 -27 -10q-37 0 -58 66l-5 15q-16 -45 -42 -72.5t-70 -32.5z" />
    <glyph glyph-name="v" unicode="v" horiz-adv-x="402" 
d="M247 4q-8 0 -18.5 7t-14.5 20q-136 408 -189 834v3q0 31 32 31q33 0 39 -34q46 -366 154 -717q1 2 6 52q34 321 54 602q0 7 1 13h70v-25l-2 -12q-15 -206 -35 -412q-26 -275 -39 -311q-11 -33 -48 -49q-5 -2 -10 -2z" />
    <glyph glyph-name="w" unicode="w" horiz-adv-x="494" 
d="M401 -9q-13 0 -25 10q-70 68 -95 160l-6 23q-13 -43 -20.5 -75.5t-21.5 -63.5q-18 -36 -58 -41q-29 0 -36 26q-37 163 -57 372q-57 460 -57 466q0 20 16 28q8 4 17 4q33 0 39 -35q55 -440 60 -490q11 -115 32 -229l61 211q9 26 33 26q11 0 23 -8t15 -28q5 -80 26 -158
q11 -46 36 -84q14 70 14 205q-2 235 -2 469q-17 8 -17 27q0 6 2 13q13 36 47 36q23 0 31.5 -12.5t8.5 -23.5v-207q2 -172 2 -307q0 -58 -4 -131t-29 -157q-9 -26 -35 -26z" />
    <glyph glyph-name="x" unicode="x" 
d="M369 -37q-4 0 -16.5 2t-21.5 25l-112 340l-77 -288q-9 -28 -36 -28q-16 0 -28.5 10t-12.5 26q0 11 59 227l50 189q-140 426 -140 436q0 14 11.5 24t27.5 10q4 0 16.5 -2t21.5 -26l100 -303l27 102q27 85 27 173l-1 32q0 35 36 35t42 -38l1 -35q0 -88 -25 -173
q-30 -117 -62 -232l151 -458q2 -7 2 -13q0 -15 -12 -25t-28 -10z" />
    <glyph glyph-name="y" unicode="y" horiz-adv-x="408" 
d="M151 -132q-23 0 -34.5 10.5t-11.5 26.5q1 30 20 53q12 14 25 14q23 -4 33 -26q31 5 57 24q42 29 55 84q7 35 7 71q0 34 -9 97q-4 -28 -11 -55q-23 -85 -85 -108q-17 -6 -34 -6q-16 0 -32 5q-29 11 -46.5 36t-24.5 54q-16 67 -22 171q-16 166 -16 335q0 122 8 245
q3 24 22 32q10 4 19 4t21.5 -5.5t12.5 -30.5q-8 -121 -8 -243q0 -182 20 -383q4 -49 11 -86q0 -11 7 -33q9 -27 31 -27q15 0 27 19.5t20 54.5t10 56l2 8q17 116 17 258q0 171 -15 342q0 36 33 36q36 0 42 -36l65 -662q6 -50 6 -99q0 -13 -1 -50.5t-36 -91.5
q-69 -94 -185 -94z" />
    <glyph glyph-name="z" unicode="z" horiz-adv-x="438" 
d="M365 20l-240 1q-21 1 -33 17q-9 10 -9 23q0 6 2 13q104 333 183 673l-195 -8q-27 0 -35 20q-4 10 -4 20q0 38 39 43l248 10q21 0 33 -16q8 -12 8 -26l-1 -10q-78 -342 -180 -676q64 -1 184 -1q26 -2 35 -22q5 -10 5 -20q0 -39 -40 -41z" />
    <glyph glyph-name="braceleft" unicode="{" horiz-adv-x="194" 
d="M146 -11h-9q-41 0 -66 69q-8 38 -8 57l2 248q0 12 -35 44l-10 22q10 25 41 48q5 3 6 35l-4 213q0 153 62 153q43 0 43 -37q0 -20 -31 -31q-8 -39 -8 -87q0 -49 4 -209q0 -61 -29 -89q27 -25 27 -74l-2 -236q4 -64 27 -64q15 -11 18 -29q-7 -33 -28 -33z" />
    <glyph glyph-name="bar" unicode="|" horiz-adv-x="122" 
d="M67 10q-30 0 -34 37l-13 820q8 27 32 27q34 0 37 -40l13 -818q-11 -26 -35 -26z" />
    <glyph glyph-name="braceright" unicode="}" horiz-adv-x="193" 
d="M53 -3q-33 5 -33 33q0 25 31 35q14 32 14 79l-4 176l2 70q4 20 27 46q-29 28 -29 64l2 257q0 68 -19 68q-18 10 -18 25v6q0 33 41 33q34 0 50 -45q12 -39 12 -89l-2 -259q0 -7 31 -31q0 -1 15 -23q0 -16 -44 -62l-2 -56l4 -178q0 -112 -53 -141q-15 -8 -25 -8z" />
    <glyph glyph-name="asciitilde" unicode="~" horiz-adv-x="376" 
d="M274 367q-41 0 -114 66q-36 30 -57 30q-16 0 -39 -41q-8 -7 -18 -7q-26 3 -26 24v6q18 46 57 65q14 4 31 4q44 0 129 -78q26 -17 36 -17q18 0 39 42q9 6 21 6q23 -5 23 -22v-6q-29 -72 -82 -72z" />
    <glyph glyph-name="exclamdown" unicode="&#xa1;" horiz-adv-x="140" 
d="M71 -42q-47 8 -47 45q0 565 -4 699q0 30 46 42q17 0 40 -18q14 0 14 -331q-3 -237 -3 -390q0 -39 -46 -47zM66 809q-46 8 -46 44v42q0 37 44 44q49 -4 49 -44v-42q0 -34 -47 -44zM57 870v11l-9 -4q3 -7 9 -7zM75 870l10 2q0 6 -10 9v-11z" />
  </font>
</defs>
</svg>
